<svg width="557" height="551" viewBox="0 0 557 551" fill="none" xmlns="http://www.w3.org/2000/svg">
<path d="M40 42C40 40.8954 40.8954 40 42 40H515C516.105 40 517 40.8954 517 42V509C517 510.105 516.105 511 515 511H42C40.8954 511 40 510.105 40 509V42Z" fill="#E8CDCD"/>
<path d="M42 41H515V39H42V41ZM516 42V509H518V42H516ZM515 510H42V512H515V510ZM41 509V42H39V509H41ZM42 510C41.4477 510 41 509.552 41 509H39C39 510.657 40.3432 512 42 512V510ZM516 509C516 509.552 515.552 510 515 510V512C516.657 512 518 510.657 518 509H516ZM515 41C515.552 41 516 41.4477 516 42H518C518 40.3431 516.657 39 515 39V41ZM42 39C40.3431 39 39 40.3432 39 42H41C41 41.4477 41.4477 41 42 41V39Z" fill="black" fill-opacity="0.1"/>
<g filter="url(#filter0_d_0_1)">
<path d="M107 114C107 105.163 114.163 98 123 98H442C450.837 98 458 105.163 458 114V149C458 157.837 450.837 165 442 165H123C114.163 165 107 157.837 107 149V114Z" fill="#7D2E2E"/>
</g>
<path d="M215.362 140.476C212.888 140.453 210.735 139.921 208.901 138.877C207.067 137.834 205.657 136.363 204.67 134.464C203.684 132.542 203.202 130.321 203.225 127.801C203.248 125.281 203.769 123.069 204.79 121.165C205.81 119.261 207.247 117.803 209.099 116.793C210.975 115.76 213.138 115.255 215.588 115.277C217.571 115.294 219.412 115.649 221.109 116.341C222.829 117.033 224.139 117.979 225.038 119.177C225.246 119.412 225.349 119.693 225.346 120.019C225.343 120.393 225.177 120.683 224.848 120.89C224.637 121.028 224.403 121.096 224.146 121.094C223.936 121.092 223.727 121.043 223.517 120.948C223.309 120.829 223.135 120.688 222.996 120.523C222.281 119.607 221.284 118.886 220.006 118.361C218.727 117.813 217.248 117.532 215.568 117.516C213.608 117.499 211.901 117.904 210.447 118.731C208.993 119.558 207.874 120.749 207.09 122.306C206.306 123.862 205.904 125.702 205.885 127.825C205.856 131.045 206.685 133.584 208.372 135.443C210.059 137.278 212.395 138.209 215.382 138.236C216.945 138.25 218.336 138.017 219.553 137.538C220.771 137.036 221.722 136.344 222.407 135.464C223.115 134.56 223.474 133.536 223.485 132.393L223.495 131.203C223.501 130.573 223.377 130.117 223.123 129.835C222.892 129.553 222.438 129.409 221.761 129.403L216.442 129.355C215.555 129.347 215.115 128.993 215.121 128.293C215.128 127.546 215.575 127.177 216.461 127.185L222.236 127.237C223.566 127.249 224.555 127.549 225.203 128.138C225.851 128.728 226.17 129.629 226.159 130.842L226.147 132.172C226.133 133.735 225.653 135.154 224.708 136.429C223.764 137.704 222.471 138.708 220.831 139.44C219.191 140.148 217.368 140.494 215.362 140.476ZM235.268 140.304C233.844 140.292 232.739 139.908 231.953 139.155C231.166 138.401 230.779 137.347 230.791 135.994L230.935 119.965C230.947 118.658 231.341 117.635 232.118 116.895C232.918 116.156 234.018 115.792 235.418 115.805L246.267 115.902C247.177 115.91 247.629 116.288 247.622 117.034C247.619 117.361 247.5 117.617 247.265 117.801C247.03 117.986 246.691 118.076 246.248 118.072L235.433 117.975C234.873 117.97 234.417 118.153 234.063 118.523C233.733 118.893 233.565 119.382 233.56 119.988L233.5 126.673L243.51 126.763C244.42 126.771 244.871 127.148 244.864 127.895C244.861 128.245 244.731 128.512 244.472 128.697C244.237 128.881 243.91 128.972 243.49 128.968L233.48 128.878L233.415 136.088C233.41 136.694 233.569 137.186 233.892 137.562C234.239 137.938 234.692 138.129 235.252 138.134L246.837 138.238C247.747 138.246 248.198 138.612 248.192 139.335C248.189 139.685 248.058 139.953 247.8 140.137C247.565 140.322 247.237 140.412 246.817 140.408L235.268 140.304ZM252.941 120.337C252.953 119.007 253.348 117.949 254.125 117.163C254.925 116.377 256.072 115.99 257.565 116.004L264.11 116.063C270.456 116.12 273.606 118.785 273.559 124.058C273.536 126.601 272.748 128.519 271.197 129.812C269.645 131.105 267.318 131.737 264.214 131.709L270.941 138.805C271.149 139.017 271.252 139.286 271.249 139.613C271.245 140.033 271.067 140.369 270.715 140.623C270.433 140.83 270.14 140.933 269.837 140.93C269.37 140.926 268.929 140.688 268.513 140.218L260.54 131.676L255.815 131.634L255.746 139.333C255.741 139.8 255.598 140.172 255.316 140.449C255.057 140.704 254.694 140.829 254.227 140.825C253.76 140.821 253.4 140.689 253.146 140.43C252.891 140.148 252.767 139.773 252.771 139.307L252.941 120.337ZM264.166 129.294C266.313 129.313 267.903 128.93 268.937 128.146C269.994 127.339 270.531 125.967 270.549 124.031C270.566 122.071 270.054 120.666 269.011 119.817C267.969 118.944 266.387 118.498 264.263 118.479L257.719 118.42C257.182 118.415 256.749 118.586 256.419 118.934C256.089 119.281 255.921 119.757 255.916 120.364L255.836 129.219L264.166 129.294ZM279.104 141.048C278.707 141.045 278.393 140.925 278.162 140.69C277.931 140.431 277.818 140.08 277.822 139.637L277.964 123.817C277.986 121.344 278.703 119.402 280.116 117.991C281.529 116.581 283.46 115.886 285.91 115.908C287.333 115.921 288.637 116.306 289.82 117.064C291.027 117.798 291.928 118.774 292.524 119.993C293.141 118.762 294.037 117.79 295.21 117.077C296.406 116.364 297.74 116.015 299.21 116.028C301.659 116.05 303.578 116.779 304.965 118.215C306.353 119.627 307.035 121.582 307.013 124.078L306.87 139.898C306.866 140.341 306.735 140.69 306.476 140.944C306.241 141.175 305.925 141.289 305.528 141.286C305.108 141.282 304.782 141.162 304.551 140.927C304.343 140.668 304.242 140.317 304.246 139.874L304.388 124.055C304.404 122.211 303.997 120.796 303.166 119.809C302.358 118.821 301.009 118.319 299.119 118.302C297.463 118.287 296.163 118.789 295.22 119.807C294.278 120.802 293.799 122.186 293.783 123.959L293.641 139.779C293.637 140.222 293.517 140.571 293.282 140.826C293.046 141.057 292.73 141.171 292.333 141.167C291.937 141.164 291.623 141.044 291.392 140.809C291.184 140.55 291.082 140.199 291.086 139.756L291.228 123.936C291.244 122.21 290.766 120.829 289.795 119.793C288.825 118.735 287.546 118.198 285.96 118.184C284.07 118.167 282.7 118.645 281.852 119.617C281.026 120.59 280.605 121.998 280.589 123.841L280.447 139.66C280.443 140.104 280.323 140.452 280.087 140.707C279.852 140.938 279.524 141.052 279.104 141.048ZM313.419 141.357C313.022 141.353 312.708 141.233 312.477 140.998C312.246 140.739 312.133 140.388 312.137 139.945L312.26 126.26C312.288 123.087 313.197 120.622 314.986 118.865C316.799 117.084 319.292 116.208 322.465 116.237C325.615 116.265 328.08 117.186 329.861 118.998C331.641 120.811 332.517 123.292 332.489 126.442L332.366 140.127C332.362 140.57 332.242 140.919 332.006 141.173C331.771 141.405 331.443 141.518 331.023 141.515C330.627 141.511 330.301 141.392 330.046 141.156C329.815 140.897 329.702 140.546 329.706 140.103L329.777 132.228L314.832 132.094L314.762 139.969C314.758 140.412 314.638 140.761 314.402 141.015C314.167 141.247 313.839 141.36 313.419 141.357ZM329.796 130.058L329.83 126.313C329.852 123.817 329.228 121.898 327.956 120.556C326.685 119.191 324.848 118.498 322.445 118.477C320.018 118.455 318.157 119.103 316.862 120.422C315.567 121.74 314.908 123.659 314.885 126.179L314.852 129.924L329.796 130.058ZM338.847 141.585C338.45 141.581 338.136 141.462 337.905 141.226C337.674 140.968 337.561 140.617 337.564 140.173L337.693 125.894C337.71 123.957 338.134 122.281 338.963 120.865C339.816 119.426 341.016 118.329 342.563 117.572C344.11 116.816 345.921 116.448 347.998 116.466C350.074 116.485 351.868 116.886 353.377 117.67C354.91 118.453 356.079 119.572 356.882 121.026C357.709 122.457 358.114 124.141 358.097 126.077L357.969 140.357C357.965 140.8 357.845 141.149 357.609 141.404C357.397 141.635 357.081 141.749 356.661 141.745C356.264 141.741 355.939 141.622 355.684 141.386C355.453 141.127 355.34 140.776 355.344 140.333L355.473 125.949C355.493 123.685 354.844 121.918 353.526 120.646C352.207 119.374 350.358 118.727 347.978 118.706C345.645 118.685 343.784 119.31 342.396 120.581C341.031 121.852 340.339 123.596 340.319 125.813L340.189 140.197C340.185 140.64 340.066 140.989 339.83 141.244C339.595 141.475 339.267 141.589 338.847 141.585Z" fill="white"/>
<g filter="url(#filter1_d_0_1)">
<rect x="124" y="275" width="313" height="63" fill="#110101"/>
<rect x="124.5" y="275.5" width="312" height="62" stroke="black"/>
</g>
<path d="M215.854 319.27C213.982 319.27 212.335 318.874 210.913 318.082C209.509 317.272 208.42 316.138 207.646 314.68C206.872 313.204 206.485 311.503 206.485 309.577C206.485 307.633 206.872 305.923 207.646 304.447C208.42 302.971 209.509 301.837 210.913 301.045C212.335 300.235 213.973 299.83 215.827 299.83C217.375 299.83 218.797 300.091 220.093 300.613C221.407 301.135 222.433 301.864 223.171 302.8C223.315 302.962 223.387 303.16 223.387 303.394C223.387 303.682 223.261 303.916 223.009 304.096C222.847 304.204 222.667 304.258 222.469 304.258C222.127 304.258 221.839 304.123 221.605 303.853C221.029 303.115 220.246 302.548 219.256 302.152C218.266 301.756 217.123 301.558 215.827 301.558C214.333 301.558 213.037 301.882 211.939 302.53C210.841 303.178 209.995 304.105 209.401 305.311C208.825 306.517 208.537 307.939 208.537 309.577C208.537 311.197 208.825 312.61 209.401 313.816C209.995 315.004 210.841 315.922 211.939 316.57C213.055 317.218 214.36 317.542 215.854 317.542C217.24 317.542 218.446 317.344 219.472 316.948C220.516 316.534 221.335 315.967 221.929 315.247C222.199 314.959 222.487 314.815 222.793 314.815C223.009 314.815 223.189 314.878 223.333 315.004C223.585 315.22 223.711 315.454 223.711 315.706C223.711 315.922 223.63 316.129 223.468 316.327C222.73 317.227 221.677 317.947 220.309 318.487C218.959 319.009 217.474 319.27 215.854 319.27ZM236.241 319.27C234.423 319.27 232.785 318.874 231.327 318.082C229.869 317.272 228.717 316.129 227.871 314.653C227.043 313.177 226.629 311.476 226.629 309.55C226.629 307.606 227.043 305.905 227.871 304.447C228.717 302.971 229.869 301.837 231.327 301.045C232.785 300.235 234.423 299.83 236.241 299.83C238.059 299.83 239.697 300.235 241.155 301.045C242.613 301.837 243.756 302.971 244.584 304.447C245.43 305.905 245.853 307.606 245.853 309.55C245.853 311.476 245.43 313.177 244.584 314.653C243.756 316.129 242.613 317.272 241.155 318.082C239.697 318.874 238.059 319.27 236.241 319.27ZM236.241 317.542C237.699 317.542 238.995 317.227 240.129 316.597C241.281 315.967 242.181 315.058 242.829 313.87C243.495 312.664 243.828 311.224 243.828 309.55C243.828 307.858 243.486 306.409 242.802 305.203C242.136 303.997 241.218 303.088 240.048 302.476C238.896 301.864 237.609 301.558 236.187 301.558C234.747 301.558 233.451 301.873 232.299 302.503C231.165 303.133 230.274 304.051 229.626 305.257C228.978 306.463 228.654 307.894 228.654 309.55C228.654 311.224 228.978 312.664 229.626 313.87C230.292 315.058 231.192 315.967 232.326 316.597C233.478 317.227 234.783 317.542 236.241 317.542ZM257.147 319.27C255.545 319.27 254.15 318.955 252.962 318.325C251.792 317.695 250.892 316.786 250.262 315.598C249.632 314.41 249.317 312.997 249.317 311.359V300.91C249.317 300.568 249.407 300.307 249.587 300.127C249.767 299.929 250.01 299.83 250.316 299.83C250.64 299.83 250.892 299.929 251.072 300.127C251.252 300.307 251.342 300.568 251.342 300.91V311.44C251.342 313.384 251.855 314.887 252.881 315.949C253.907 317.011 255.347 317.542 257.201 317.542C259.073 317.542 260.531 317.011 261.575 315.949C262.637 314.869 263.168 313.366 263.168 311.44V300.91C263.168 300.568 263.258 300.307 263.438 300.127C263.636 299.929 263.888 299.83 264.194 299.83C264.518 299.83 264.761 299.929 264.923 300.127C265.103 300.307 265.193 300.568 265.193 300.91V311.359C265.193 312.943 264.869 314.338 264.221 315.544C263.573 316.732 262.637 317.65 261.413 318.298C260.207 318.946 258.785 319.27 257.147 319.27ZM270.224 319.27C269.918 319.27 269.675 319.18 269.495 319C269.315 318.802 269.225 318.532 269.225 318.19V307.174C269.225 305.68 269.54 304.384 270.17 303.286C270.818 302.17 271.736 301.315 272.924 300.721C274.112 300.127 275.507 299.83 277.109 299.83C278.711 299.83 280.097 300.127 281.267 300.721C282.455 301.315 283.364 302.17 283.994 303.286C284.642 304.384 284.966 305.68 284.966 307.174V318.19C284.966 318.532 284.876 318.802 284.696 319C284.534 319.18 284.291 319.27 283.967 319.27C283.661 319.27 283.409 319.18 283.211 319C283.031 318.802 282.941 318.532 282.941 318.19V307.093C282.941 305.347 282.428 303.988 281.402 303.016C280.376 302.044 278.945 301.558 277.109 301.558C275.309 301.558 273.878 302.053 272.816 303.043C271.772 304.033 271.25 305.383 271.25 307.093V318.19C271.25 318.532 271.16 318.802 270.98 319C270.8 319.18 270.548 319.27 270.224 319.27ZM295.186 319.27C294.862 319.27 294.61 319.18 294.43 319C294.268 318.802 294.187 318.532 294.187 318.19V301.774H288.004C287.68 301.774 287.419 301.711 287.221 301.585C287.041 301.441 286.951 301.234 286.951 300.964C286.951 300.388 287.302 300.1 288.004 300.1H302.422C303.124 300.1 303.475 300.388 303.475 300.964C303.475 301.216 303.385 301.414 303.205 301.558C303.025 301.702 302.764 301.774 302.422 301.774H296.239V318.19C296.239 318.532 296.14 318.802 295.942 319C295.762 319.18 295.51 319.27 295.186 319.27ZM308.638 319.27C308.332 319.27 308.089 319.18 307.909 319C307.729 318.802 307.639 318.532 307.639 318.19V300.91C307.639 300.568 307.729 300.307 307.909 300.127C308.089 299.929 308.332 299.83 308.638 299.83C308.962 299.83 309.214 299.929 309.394 300.127C309.574 300.325 309.664 300.586 309.664 300.91V318.19C309.664 318.514 309.574 318.775 309.394 318.973C309.214 319.171 308.962 319.27 308.638 319.27ZM315.654 319.27C315.348 319.27 315.105 319.18 314.925 319C314.745 318.802 314.655 318.532 314.655 318.19V307.174C314.655 305.68 314.97 304.384 315.6 303.286C316.248 302.17 317.166 301.315 318.354 300.721C319.542 300.127 320.937 299.83 322.539 299.83C324.141 299.83 325.527 300.127 326.697 300.721C327.885 301.315 328.794 302.17 329.424 303.286C330.072 304.384 330.396 305.68 330.396 307.174V318.19C330.396 318.532 330.306 318.802 330.126 319C329.964 319.18 329.721 319.27 329.397 319.27C329.091 319.27 328.839 319.18 328.641 319C328.461 318.802 328.371 318.532 328.371 318.19V307.093C328.371 305.347 327.858 303.988 326.832 303.016C325.806 302.044 324.375 301.558 322.539 301.558C320.739 301.558 319.308 302.053 318.246 303.043C317.202 304.033 316.68 305.383 316.68 307.093V318.19C316.68 318.532 316.59 318.802 316.41 319C316.23 319.18 315.978 319.27 315.654 319.27ZM342.813 319.27C340.905 319.27 339.24 318.874 337.818 318.082C336.396 317.29 335.298 316.165 334.524 314.707C333.75 313.231 333.363 311.521 333.363 309.577C333.363 307.633 333.75 305.923 334.524 304.447C335.298 302.971 336.396 301.837 337.818 301.045C339.258 300.235 340.923 299.83 342.813 299.83C344.343 299.83 345.765 300.091 347.079 300.613C348.411 301.135 349.428 301.855 350.13 302.773C350.292 302.953 350.373 303.169 350.373 303.421C350.373 303.709 350.247 303.934 349.995 304.096C349.833 304.204 349.653 304.258 349.455 304.258C349.293 304.258 349.131 304.222 348.969 304.15C348.807 304.06 348.672 303.952 348.564 303.826C348.006 303.124 347.232 302.575 346.242 302.179C345.252 301.765 344.109 301.558 342.813 301.558C341.301 301.558 339.987 301.882 338.871 302.53C337.755 303.178 336.9 304.105 336.306 305.311C335.712 306.517 335.415 307.939 335.415 309.577C335.415 312.061 336.072 314.014 337.386 315.436C338.7 316.84 340.509 317.542 342.813 317.542C344.019 317.542 345.09 317.353 346.026 316.975C346.962 316.579 347.691 316.039 348.213 315.355C348.753 314.653 349.023 313.861 349.023 312.979V312.061C349.023 311.575 348.924 311.224 348.726 311.008C348.546 310.792 348.195 310.684 347.673 310.684H343.569C342.885 310.684 342.543 310.414 342.543 309.874C342.543 309.298 342.885 309.01 343.569 309.01H348.024C349.05 309.01 349.815 309.235 350.319 309.685C350.823 310.135 351.075 310.828 351.075 311.764V312.79C351.075 313.996 350.715 315.094 349.995 316.084C349.275 317.074 348.285 317.857 347.025 318.433C345.765 318.991 344.361 319.27 342.813 319.27Z" fill="white"/>
<g filter="url(#filter2_d_0_1)">
<rect x="122" y="351" width="313" height="64" fill="#D03636"/>
</g>
<path d="M195.423 393.27C195.099 393.27 194.847 393.18 194.667 393C194.505 392.802 194.424 392.532 194.424 392.19V375.774H188.241C187.917 375.774 187.656 375.711 187.458 375.585C187.278 375.441 187.188 375.234 187.188 374.964C187.188 374.388 187.539 374.1 188.241 374.1H202.659C203.361 374.1 203.712 374.388 203.712 374.964C203.712 375.216 203.622 375.414 203.442 375.558C203.262 375.702 203.001 375.774 202.659 375.774H196.476V392.19C196.476 392.532 196.377 392.802 196.179 393C195.999 393.18 195.747 393.27 195.423 393.27ZM206.931 377.475C206.931 376.449 207.228 375.63 207.822 375.018C208.434 374.406 209.316 374.1 210.468 374.1H215.517C220.413 374.1 222.861 376.134 222.861 380.202C222.861 382.164 222.267 383.649 221.079 384.657C219.891 385.665 218.1 386.169 215.706 386.169L220.944 391.596C221.106 391.758 221.187 391.965 221.187 392.217C221.187 392.541 221.052 392.802 220.782 393C220.566 393.162 220.341 393.243 220.107 393.243C219.747 393.243 219.405 393.063 219.081 392.703L212.871 386.169H209.226V392.109C209.226 392.469 209.118 392.757 208.902 392.973C208.704 393.171 208.425 393.27 208.065 393.27C207.705 393.27 207.426 393.171 207.228 392.973C207.03 392.757 206.931 392.469 206.931 392.109V377.475ZM215.652 384.306C217.308 384.306 218.532 384 219.324 383.388C220.134 382.758 220.539 381.696 220.539 380.202C220.539 378.69 220.134 377.61 219.324 376.962C218.514 376.296 217.29 375.963 215.652 375.963H210.603C210.189 375.963 209.856 376.098 209.604 376.368C209.352 376.638 209.226 377.007 209.226 377.475V384.306H215.652ZM227.256 393.27C226.95 393.27 226.707 393.18 226.527 393C226.347 392.802 226.257 392.532 226.257 392.19V381.633C226.257 379.185 226.941 377.277 228.309 375.909C229.695 374.523 231.612 373.83 234.06 373.83C236.49 373.83 238.398 374.523 239.784 375.909C241.17 377.295 241.863 379.203 241.863 381.633V392.19C241.863 392.532 241.773 392.802 241.593 393C241.413 393.18 241.161 393.27 240.837 393.27C240.531 393.27 240.279 393.18 240.081 393C239.901 392.802 239.811 392.532 239.811 392.19V386.115H228.282V392.19C228.282 392.532 228.192 392.802 228.012 393C227.832 393.18 227.58 393.27 227.256 393.27ZM239.811 384.441V381.552C239.811 379.626 239.316 378.15 238.326 377.124C237.336 376.08 235.914 375.558 234.06 375.558C232.188 375.558 230.757 376.071 229.767 377.097C228.777 378.123 228.282 379.608 228.282 381.552V384.441H239.811ZM246.873 393.27C246.567 393.27 246.324 393.18 246.144 393C245.964 392.802 245.874 392.532 245.874 392.19V381.174C245.874 379.68 246.189 378.384 246.819 377.286C247.467 376.17 248.385 375.315 249.573 374.721C250.761 374.127 252.156 373.83 253.758 373.83C255.36 373.83 256.746 374.127 257.916 374.721C259.104 375.315 260.013 376.17 260.643 377.286C261.291 378.384 261.615 379.68 261.615 381.174V392.19C261.615 392.532 261.525 392.802 261.345 393C261.183 393.18 260.94 393.27 260.616 393.27C260.31 393.27 260.058 393.18 259.86 393C259.68 392.802 259.59 392.532 259.59 392.19V381.093C259.59 379.347 259.077 377.988 258.051 377.016C257.025 376.044 255.594 375.558 253.758 375.558C251.958 375.558 250.527 376.053 249.465 377.043C248.421 378.033 247.899 379.383 247.899 381.093V392.19C247.899 392.532 247.809 392.802 247.629 393C247.449 393.18 247.197 393.27 246.873 393.27ZM273.48 393.27C271.752 393.27 270.159 392.982 268.701 392.406C267.261 391.812 266.136 391.002 265.326 389.976C265.182 389.796 265.11 389.607 265.11 389.409C265.11 389.157 265.245 388.914 265.515 388.68C265.659 388.572 265.812 388.518 265.974 388.518C266.298 388.518 266.586 388.671 266.838 388.977C267.576 389.787 268.503 390.417 269.619 390.867C270.753 391.299 272.04 391.515 273.48 391.515C275.064 391.515 276.288 391.227 277.152 390.651C278.016 390.057 278.448 389.22 278.448 388.14C278.448 387.204 278.025 386.448 277.179 385.872C276.351 385.296 274.938 384.783 272.94 384.333C270.33 383.757 268.449 383.037 267.297 382.173C266.163 381.291 265.596 380.13 265.596 378.69C265.596 377.196 266.226 376.017 267.486 375.153C268.764 374.271 270.483 373.83 272.643 373.83C274.281 373.83 275.757 374.118 277.071 374.694C278.403 375.27 279.348 376.044 279.906 377.016C280.014 377.196 280.068 377.367 280.068 377.529C280.068 377.817 279.915 378.069 279.609 378.285C279.483 378.357 279.339 378.393 279.177 378.393C278.781 378.393 278.475 378.24 278.259 377.934C277.737 377.178 276.999 376.602 276.045 376.206C275.091 375.792 273.957 375.585 272.643 375.585C269.313 375.585 267.648 376.62 267.648 378.69C267.648 379.32 267.819 379.851 268.161 380.283C268.503 380.697 269.052 381.075 269.808 381.417C270.582 381.741 271.653 382.065 273.021 382.389C275.685 383.019 277.602 383.784 278.772 384.684C279.942 385.566 280.527 386.718 280.527 388.14C280.527 389.724 279.888 390.975 278.61 391.893C277.35 392.811 275.64 393.27 273.48 393.27ZM287.7 393C286.602 393 285.747 392.712 285.135 392.136C284.523 391.542 284.217 390.732 284.217 389.706V374.91C284.217 374.568 284.307 374.307 284.487 374.127C284.667 373.929 284.91 373.83 285.216 373.83C285.54 373.83 285.792 373.929 285.972 374.127C286.152 374.307 286.242 374.568 286.242 374.91V389.76C286.242 390.228 286.368 390.606 286.62 390.894C286.89 391.182 287.241 391.326 287.673 391.326H296.664C297.366 391.326 297.717 391.605 297.717 392.163C297.717 392.433 297.627 392.64 297.447 392.784C297.267 392.928 297.006 393 296.664 393H287.7ZM301.955 393.27C301.649 393.27 301.406 393.18 301.226 393C301.046 392.802 300.956 392.532 300.956 392.19V381.633C300.956 379.185 301.64 377.277 303.008 375.909C304.394 374.523 306.311 373.83 308.759 373.83C311.189 373.83 313.097 374.523 314.483 375.909C315.869 377.295 316.562 379.203 316.562 381.633V392.19C316.562 392.532 316.472 392.802 316.292 393C316.112 393.18 315.86 393.27 315.536 393.27C315.23 393.27 314.978 393.18 314.78 393C314.6 392.802 314.51 392.532 314.51 392.19V386.115H302.981V392.19C302.981 392.532 302.891 392.802 302.711 393C302.531 393.18 302.279 393.27 301.955 393.27ZM314.51 384.441V381.552C314.51 379.626 314.015 378.15 313.025 377.124C312.035 376.08 310.613 375.558 308.759 375.558C306.887 375.558 305.456 376.071 304.466 377.097C303.476 378.123 302.981 379.608 302.981 381.552V384.441H314.51ZM326.521 393.27C326.197 393.27 325.945 393.18 325.765 393C325.603 392.802 325.522 392.532 325.522 392.19V375.774H319.339C319.015 375.774 318.754 375.711 318.556 375.585C318.376 375.441 318.286 375.234 318.286 374.964C318.286 374.388 318.637 374.1 319.339 374.1H333.757C334.459 374.1 334.81 374.388 334.81 374.964C334.81 375.216 334.72 375.414 334.54 375.558C334.36 375.702 334.099 375.774 333.757 375.774H327.574V392.19C327.574 392.532 327.475 392.802 327.277 393C327.097 393.18 326.845 393.27 326.521 393.27ZM345.28 393.27C343.462 393.27 341.824 392.874 340.366 392.082C338.908 391.272 337.756 390.129 336.91 388.653C336.082 387.177 335.668 385.476 335.668 383.55C335.668 381.606 336.082 379.905 336.91 378.447C337.756 376.971 338.908 375.837 340.366 375.045C341.824 374.235 343.462 373.83 345.28 373.83C347.098 373.83 348.736 374.235 350.194 375.045C351.652 375.837 352.795 376.971 353.623 378.447C354.469 379.905 354.892 381.606 354.892 383.55C354.892 385.476 354.469 387.177 353.623 388.653C352.795 390.129 351.652 391.272 350.194 392.082C348.736 392.874 347.098 393.27 345.28 393.27ZM345.28 391.542C346.738 391.542 348.034 391.227 349.168 390.597C350.32 389.967 351.22 389.058 351.868 387.87C352.534 386.664 352.867 385.224 352.867 383.55C352.867 381.858 352.525 380.409 351.841 379.203C351.175 377.997 350.257 377.088 349.087 376.476C347.935 375.864 346.648 375.558 345.226 375.558C343.786 375.558 342.49 375.873 341.338 376.503C340.204 377.133 339.313 378.051 338.665 379.257C338.017 380.463 337.693 381.894 337.693 383.55C337.693 385.224 338.017 386.664 338.665 387.87C339.331 389.058 340.231 389.967 341.365 390.597C342.517 391.227 343.822 391.542 345.28 391.542ZM358.41 377.475C358.41 376.449 358.707 375.63 359.301 375.018C359.913 374.406 360.795 374.1 361.947 374.1H366.996C371.892 374.1 374.34 376.134 374.34 380.202C374.34 382.164 373.746 383.649 372.558 384.657C371.37 385.665 369.579 386.169 367.185 386.169L372.423 391.596C372.585 391.758 372.666 391.965 372.666 392.217C372.666 392.541 372.531 392.802 372.261 393C372.045 393.162 371.82 393.243 371.586 393.243C371.226 393.243 370.884 393.063 370.56 392.703L364.35 386.169H360.705V392.109C360.705 392.469 360.597 392.757 360.381 392.973C360.183 393.171 359.904 393.27 359.544 393.27C359.184 393.27 358.905 393.171 358.707 392.973C358.509 392.757 358.41 392.469 358.41 392.109V377.475ZM367.131 384.306C368.787 384.306 370.011 384 370.803 383.388C371.613 382.758 372.018 381.696 372.018 380.202C372.018 378.69 371.613 377.61 370.803 376.962C369.993 376.296 368.769 375.963 367.131 375.963H362.082C361.668 375.963 361.335 376.098 361.083 376.368C360.831 376.638 360.705 377.007 360.705 377.475V384.306H367.131Z" fill="white"/>
<g filter="url(#filter3_d_0_1)">
<rect x="120" y="428" width="317" height="66" fill="#E6A819"/>
</g>
<path d="M192.042 471.26C191.747 471.26 191.513 471.173 191.34 471C191.167 470.809 191.08 470.549 191.08 470.22V455.92C191.08 454.949 191.366 454.187 191.938 453.632C192.527 453.077 193.342 452.8 194.382 452.8H202.442C203.118 452.8 203.456 453.077 203.456 453.632C203.456 453.875 203.369 454.065 203.196 454.204C203.023 454.343 202.771 454.412 202.442 454.412H194.408C193.992 454.412 193.654 454.551 193.394 454.828C193.151 455.105 193.03 455.469 193.03 455.92V461.146H200.466C201.142 461.146 201.48 461.423 201.48 461.978C201.48 462.238 201.385 462.437 201.194 462.576C201.021 462.715 200.778 462.784 200.466 462.784H193.03V470.22C193.03 470.549 192.943 470.809 192.77 471C192.597 471.173 192.354 471.26 192.042 471.26ZM210.381 471C209.323 471 208.5 470.723 207.911 470.168C207.321 469.596 207.027 468.816 207.027 467.828V453.58C207.027 453.251 207.113 452.999 207.287 452.826C207.46 452.635 207.694 452.54 207.989 452.54C208.301 452.54 208.543 452.635 208.717 452.826C208.89 452.999 208.977 453.251 208.977 453.58V467.88C208.977 468.331 209.098 468.695 209.341 468.972C209.601 469.249 209.939 469.388 210.355 469.388H219.013C219.689 469.388 220.027 469.657 220.027 470.194C220.027 470.454 219.94 470.653 219.767 470.792C219.593 470.931 219.342 471 219.013 471H210.381ZM224.107 471.26C223.813 471.26 223.579 471.173 223.405 471C223.232 470.809 223.145 470.549 223.145 470.22V460.054C223.145 457.697 223.804 455.859 225.121 454.542C226.456 453.207 228.302 452.54 230.659 452.54C232.999 452.54 234.837 453.207 236.171 454.542C237.506 455.877 238.173 457.714 238.173 460.054V470.22C238.173 470.549 238.087 470.809 237.913 471C237.74 471.173 237.497 471.26 237.185 471.26C236.891 471.26 236.648 471.173 236.457 471C236.284 470.809 236.197 470.549 236.197 470.22V464.37H225.095V470.22C225.095 470.549 225.009 470.809 224.835 471C224.662 471.173 224.419 471.26 224.107 471.26ZM236.197 462.758V459.976C236.197 458.121 235.721 456.7 234.767 455.712C233.814 454.707 232.445 454.204 230.659 454.204C228.857 454.204 227.479 454.698 226.525 455.686C225.572 456.674 225.095 458.104 225.095 459.976V462.758H236.197ZM249.601 471.26C247.937 471.26 246.403 470.983 244.999 470.428C243.613 469.856 242.529 469.076 241.749 468.088C241.611 467.915 241.541 467.733 241.541 467.542C241.541 467.299 241.671 467.065 241.931 466.84C242.07 466.736 242.217 466.684 242.373 466.684C242.685 466.684 242.963 466.831 243.205 467.126C243.916 467.906 244.809 468.513 245.883 468.946C246.975 469.362 248.215 469.57 249.601 469.57C251.127 469.57 252.305 469.293 253.137 468.738C253.969 468.166 254.385 467.36 254.385 466.32C254.385 465.419 253.978 464.691 253.163 464.136C252.366 463.581 251.005 463.087 249.081 462.654C246.568 462.099 244.757 461.406 243.647 460.574C242.555 459.725 242.009 458.607 242.009 457.22C242.009 455.781 242.616 454.646 243.829 453.814C245.06 452.965 246.715 452.54 248.795 452.54C250.373 452.54 251.794 452.817 253.059 453.372C254.342 453.927 255.252 454.672 255.789 455.608C255.893 455.781 255.945 455.946 255.945 456.102C255.945 456.379 255.798 456.622 255.503 456.83C255.382 456.899 255.243 456.934 255.087 456.934C254.706 456.934 254.411 456.787 254.203 456.492C253.701 455.764 252.99 455.209 252.071 454.828C251.153 454.429 250.061 454.23 248.795 454.23C245.589 454.23 243.985 455.227 243.985 457.22C243.985 457.827 244.15 458.338 244.479 458.754C244.809 459.153 245.337 459.517 246.065 459.846C246.811 460.158 247.842 460.47 249.159 460.782C251.725 461.389 253.571 462.125 254.697 462.992C255.824 463.841 256.387 464.951 256.387 466.32C256.387 467.845 255.772 469.05 254.541 469.934C253.328 470.818 251.681 471.26 249.601 471.26ZM260.825 471.26C260.53 471.26 260.296 471.173 260.123 471C259.949 470.809 259.863 470.549 259.863 470.22V453.58C259.863 453.251 259.949 452.999 260.123 452.826C260.296 452.635 260.53 452.54 260.825 452.54C261.137 452.54 261.379 452.635 261.553 452.826C261.726 452.999 261.813 453.251 261.813 453.58V460.834H273.227V453.58C273.227 453.251 273.313 452.999 273.487 452.826C273.66 452.635 273.903 452.54 274.215 452.54C274.509 452.54 274.743 452.635 274.917 452.826C275.09 452.999 275.177 453.251 275.177 453.58V470.22C275.177 470.549 275.09 470.809 274.917 471C274.743 471.173 274.509 471.26 274.215 471.26C273.92 471.26 273.677 471.173 273.487 471C273.313 470.809 273.227 470.549 273.227 470.22V462.472H261.813V470.22C261.813 470.549 261.726 470.809 261.553 471C261.379 471.173 261.137 471.26 260.825 471.26ZM287.684 471.26C285.882 471.26 284.296 470.879 282.926 470.116C281.574 469.336 280.526 468.244 279.78 466.84C279.035 465.419 278.662 463.781 278.662 461.926C278.662 460.054 279.035 458.407 279.78 456.986C280.526 455.565 281.574 454.473 282.926 453.71C284.296 452.93 285.873 452.54 287.658 452.54C289.149 452.54 290.518 452.791 291.766 453.294C293.032 453.797 294.02 454.499 294.73 455.4C294.869 455.556 294.938 455.747 294.938 455.972C294.938 456.249 294.817 456.475 294.574 456.648C294.418 456.752 294.245 456.804 294.054 456.804C293.725 456.804 293.448 456.674 293.222 456.414C292.668 455.703 291.914 455.157 290.96 454.776C290.007 454.395 288.906 454.204 287.658 454.204C286.22 454.204 284.972 454.516 283.914 455.14C282.857 455.764 282.042 456.657 281.47 457.818C280.916 458.979 280.638 460.349 280.638 461.926C280.638 463.486 280.916 464.847 281.47 466.008C282.042 467.152 282.857 468.036 283.914 468.66C284.989 469.284 286.246 469.596 287.684 469.596C289.019 469.596 290.18 469.405 291.168 469.024C292.174 468.625 292.962 468.079 293.534 467.386C293.794 467.109 294.072 466.97 294.366 466.97C294.574 466.97 294.748 467.031 294.886 467.152C295.129 467.36 295.25 467.585 295.25 467.828C295.25 468.036 295.172 468.235 295.016 468.426C294.306 469.293 293.292 469.986 291.974 470.506C290.674 471.009 289.244 471.26 287.684 471.26ZM299.568 471.26C299.274 471.26 299.04 471.173 298.866 471C298.693 470.809 298.606 470.549 298.606 470.22V460.054C298.606 457.697 299.265 455.859 300.582 454.542C301.917 453.207 303.763 452.54 306.12 452.54C308.46 452.54 310.298 453.207 311.632 454.542C312.967 455.877 313.634 457.714 313.634 460.054V470.22C313.634 470.549 313.548 470.809 313.374 471C313.201 471.173 312.958 471.26 312.646 471.26C312.352 471.26 312.109 471.173 311.918 471C311.745 470.809 311.658 470.549 311.658 470.22V464.37H300.556V470.22C300.556 470.549 300.47 470.809 300.296 471C300.123 471.173 299.88 471.26 299.568 471.26ZM311.658 462.758V459.976C311.658 458.121 311.182 456.7 310.228 455.712C309.275 454.707 307.906 454.204 306.12 454.204C304.318 454.204 302.94 454.698 301.986 455.686C301.033 456.674 300.556 458.104 300.556 459.976V462.758H311.658ZM317.548 456.05C317.548 455.062 317.834 454.273 318.406 453.684C318.996 453.095 319.845 452.8 320.954 452.8H325.816C330.531 452.8 332.888 454.759 332.888 458.676C332.888 460.565 332.316 461.995 331.172 462.966C330.028 463.937 328.304 464.422 325.998 464.422L331.042 469.648C331.198 469.804 331.276 470.003 331.276 470.246C331.276 470.558 331.146 470.809 330.886 471C330.678 471.156 330.462 471.234 330.236 471.234C329.89 471.234 329.56 471.061 329.248 470.714L323.268 464.422H319.758V470.142C319.758 470.489 319.654 470.766 319.446 470.974C319.256 471.165 318.987 471.26 318.64 471.26C318.294 471.26 318.025 471.165 317.834 470.974C317.644 470.766 317.548 470.489 317.548 470.142V456.05ZM325.946 462.628C327.541 462.628 328.72 462.333 329.482 461.744C330.262 461.137 330.652 460.115 330.652 458.676C330.652 457.22 330.262 456.18 329.482 455.556C328.702 454.915 327.524 454.594 325.946 454.594H321.084C320.686 454.594 320.365 454.724 320.122 454.984C319.88 455.244 319.758 455.599 319.758 456.05V462.628H325.946ZM339.643 471C338.586 471 337.762 470.723 337.173 470.168C336.584 469.596 336.289 468.816 336.289 467.828V455.92C336.289 454.949 336.575 454.187 337.147 453.632C337.736 453.077 338.551 452.8 339.591 452.8H343.231C345.034 452.8 346.602 453.181 347.937 453.944C349.289 454.689 350.329 455.747 351.057 457.116C351.785 458.485 352.149 460.089 352.149 461.926C352.149 463.763 351.785 465.367 351.057 466.736C350.329 468.088 349.289 469.137 347.937 469.882C346.602 470.627 345.034 471 343.231 471H339.643ZM342.971 469.388C345.259 469.388 347.027 468.738 348.275 467.438C349.54 466.138 350.173 464.301 350.173 461.926C350.173 459.551 349.54 457.705 348.275 456.388C347.01 455.071 345.242 454.412 342.971 454.412H339.617C339.201 454.412 338.863 454.551 338.603 454.828C338.36 455.105 338.239 455.469 338.239 455.92V467.88C338.239 468.331 338.36 468.695 338.603 468.972C338.863 469.249 339.201 469.388 339.617 469.388H342.971ZM363.097 471.26C361.433 471.26 359.899 470.983 358.495 470.428C357.109 469.856 356.025 469.076 355.245 468.088C355.107 467.915 355.037 467.733 355.037 467.542C355.037 467.299 355.167 467.065 355.427 466.84C355.566 466.736 355.713 466.684 355.869 466.684C356.181 466.684 356.459 466.831 356.701 467.126C357.412 467.906 358.305 468.513 359.379 468.946C360.471 469.362 361.711 469.57 363.097 469.57C364.623 469.57 365.801 469.293 366.633 468.738C367.465 468.166 367.881 467.36 367.881 466.32C367.881 465.419 367.474 464.691 366.659 464.136C365.862 463.581 364.501 463.087 362.577 462.654C360.064 462.099 358.253 461.406 357.143 460.574C356.051 459.725 355.505 458.607 355.505 457.22C355.505 455.781 356.112 454.646 357.325 453.814C358.556 452.965 360.211 452.54 362.291 452.54C363.869 452.54 365.29 452.817 366.555 453.372C367.838 453.927 368.748 454.672 369.285 455.608C369.389 455.781 369.441 455.946 369.441 456.102C369.441 456.379 369.294 456.622 368.999 456.83C368.878 456.899 368.739 456.934 368.583 456.934C368.202 456.934 367.907 456.787 367.699 456.492C367.197 455.764 366.486 455.209 365.567 454.828C364.649 454.429 363.557 454.23 362.291 454.23C359.085 454.23 357.481 455.227 357.481 457.22C357.481 457.827 357.646 458.338 357.975 458.754C358.305 459.153 358.833 459.517 359.561 459.846C360.307 460.158 361.338 460.47 362.655 460.782C365.221 461.389 367.067 462.125 368.193 462.992C369.32 463.841 369.883 464.951 369.883 466.32C369.883 467.845 369.268 469.05 368.037 469.934C366.824 470.818 365.177 471.26 363.097 471.26Z" fill="#F8F1F1"/>
<rect x="40" y="4" width="59.375" height="30" rx="3" fill="#E8CDCD"/>
<rect x="40.5" y="4.5" width="58.375" height="29" rx="2.5" stroke="black" stroke-opacity="0.2"/>
<path d="M51.3438 16C51.2969 15.6042 51.1068 15.2969 50.7734 15.0781C50.4401 14.8594 50.0313 14.75 49.5469 14.75C49.1927 14.75 48.8828 14.8073 48.6172 14.9219C48.3542 15.0365 48.1484 15.194 48 15.3945C47.8542 15.5951 47.7813 15.8229 47.7813 16.0781C47.7813 16.2917 47.832 16.4753 47.9336 16.6289C48.0378 16.7799 48.1706 16.9062 48.332 17.0078C48.4935 17.1068 48.6628 17.1888 48.8398 17.2539C49.0169 17.3164 49.1797 17.3672 49.3281 17.4062L50.1406 17.625C50.349 17.6797 50.5807 17.7552 50.8359 17.8516C51.0938 17.9479 51.3398 18.0794 51.5742 18.2461C51.8112 18.4102 52.0065 18.6211 52.1602 18.8789C52.3138 19.1367 52.3906 19.4531 52.3906 19.8281C52.3906 20.2604 52.2773 20.651 52.0508 21C51.8268 21.349 51.4987 21.6263 51.0664 21.832C50.6367 22.0378 50.1146 22.1406 49.5 22.1406C48.9271 22.1406 48.431 22.0482 48.0117 21.8633C47.5951 21.6784 47.2669 21.4206 47.0273 21.0898C46.7904 20.7591 46.6563 20.375 46.625 19.9375H47.625C47.651 20.2396 47.7526 20.4896 47.9297 20.6875C48.1094 20.8828 48.3359 21.0286 48.6094 21.125C48.8854 21.2187 49.1823 21.2656 49.5 21.2656C49.8698 21.2656 50.2018 21.2057 50.4961 21.0859C50.7904 20.9635 51.0234 20.7943 51.1953 20.5781C51.3672 20.3594 51.4531 20.1042 51.4531 19.8125C51.4531 19.5469 51.3789 19.3307 51.2305 19.1641C51.082 18.9974 50.8867 18.862 50.6445 18.7578C50.4023 18.6536 50.1406 18.5625 49.8594 18.4844L48.875 18.2031C48.25 18.0234 47.7552 17.7669 47.3906 17.4336C47.026 17.1003 46.8438 16.6641 46.8438 16.125C46.8438 15.6771 46.9648 15.2865 47.207 14.9531C47.4518 14.6172 47.7799 14.3568 48.1914 14.1719C48.6055 13.9844 49.0677 13.8906 49.5781 13.8906C50.0938 13.8906 50.5521 13.9831 50.9531 14.168C51.3542 14.3503 51.6719 14.6003 51.9062 14.918C52.1432 15.2357 52.2682 15.5964 52.2813 16H51.3438ZM56.374 22.125C55.7959 22.125 55.2972 21.9974 54.8779 21.7422C54.4613 21.4844 54.1396 21.125 53.9131 20.6641C53.6891 20.2005 53.5771 19.6615 53.5771 19.0469C53.5771 18.4323 53.6891 17.8906 53.9131 17.4219C54.1396 16.9505 54.4548 16.5833 54.8584 16.3203C55.2646 16.0547 55.7386 15.9219 56.2803 15.9219C56.5928 15.9219 56.9014 15.974 57.2061 16.0781C57.5107 16.1823 57.7881 16.3516 58.0381 16.5859C58.2881 16.8177 58.4873 17.125 58.6357 17.5078C58.7842 17.8906 58.8584 18.362 58.8584 18.9219V19.3125H54.2334V18.5156H57.9209C57.9209 18.1771 57.8532 17.875 57.7178 17.6094C57.585 17.3437 57.3949 17.1341 57.1475 16.9805C56.9027 16.8268 56.6136 16.75 56.2803 16.75C55.9131 16.75 55.5954 16.8411 55.3271 17.0234C55.0615 17.2031 54.8571 17.4375 54.7139 17.7266C54.5706 18.0156 54.499 18.3255 54.499 18.6562V19.1875C54.499 19.6406 54.5771 20.0247 54.7334 20.3398C54.8923 20.6523 55.1123 20.8906 55.3936 21.0547C55.6748 21.2161 56.0016 21.2969 56.374 21.2969C56.6162 21.2969 56.835 21.263 57.0303 21.1953C57.2282 21.125 57.3988 21.0208 57.542 20.8828C57.6852 20.7422 57.7959 20.5677 57.874 20.3594L58.7646 20.6094C58.6709 20.9115 58.5133 21.1771 58.292 21.4062C58.0706 21.6328 57.7972 21.8099 57.4717 21.9375C57.1462 22.0625 56.7803 22.125 56.374 22.125ZM62.6982 22.125C62.1357 22.125 61.6514 21.9922 61.2451 21.7266C60.8389 21.4609 60.5264 21.0951 60.3076 20.6289C60.0889 20.1628 59.9795 19.6302 59.9795 19.0312C59.9795 18.4219 60.0915 17.8841 60.3154 17.418C60.542 16.9492 60.8571 16.5833 61.2607 16.3203C61.667 16.0547 62.141 15.9219 62.6826 15.9219C63.1045 15.9219 63.4847 16 63.8232 16.1562C64.1618 16.3125 64.4391 16.5312 64.6553 16.8125C64.8714 17.0937 65.0055 17.4219 65.0576 17.7969H64.1357C64.0654 17.5234 63.9092 17.2812 63.667 17.0703C63.4274 16.8568 63.1045 16.75 62.6982 16.75C62.3389 16.75 62.0238 16.8437 61.7529 17.0312C61.4847 17.2161 61.2751 17.4779 61.124 17.8164C60.9756 18.1523 60.9014 18.5469 60.9014 19C60.9014 19.4635 60.9743 19.8672 61.1201 20.2109C61.2686 20.5547 61.4769 20.8216 61.7451 21.0117C62.016 21.2018 62.3337 21.2969 62.6982 21.2969C62.9378 21.2969 63.1553 21.2552 63.3506 21.1719C63.5459 21.0885 63.7113 20.9688 63.8467 20.8125C63.9821 20.6562 64.0785 20.4687 64.1357 20.25H65.0576C65.0055 20.6042 64.8766 20.9232 64.6709 21.207C64.4678 21.4883 64.1982 21.7122 63.8623 21.8789C63.529 22.043 63.141 22.125 62.6982 22.125ZM69.0146 16V16.7812H65.9053V16H69.0146ZM66.8115 14.5625H67.7334V20.2812C67.7334 20.5417 67.7712 20.737 67.8467 20.8672C67.9248 20.9948 68.0238 21.0807 68.1436 21.125C68.266 21.1667 68.3949 21.1875 68.5303 21.1875C68.6318 21.1875 68.7152 21.1823 68.7803 21.1719C68.8454 21.1589 68.8975 21.1484 68.9365 21.1406L69.124 21.9687C69.0615 21.9922 68.9743 22.0156 68.8623 22.0391C68.7503 22.0651 68.6084 22.0781 68.4365 22.0781C68.1761 22.0781 67.9209 22.0221 67.6709 21.9102C67.4235 21.7982 67.2178 21.6276 67.0537 21.3984C66.8923 21.1693 66.8115 20.8802 66.8115 20.5312V14.5625ZM70.4014 22V16H71.3232V22H70.4014ZM70.8701 15C70.6904 15 70.5355 14.9388 70.4053 14.8164C70.2777 14.694 70.2139 14.5469 70.2139 14.375C70.2139 14.2031 70.2777 14.056 70.4053 13.9336C70.5355 13.8112 70.6904 13.75 70.8701 13.75C71.0498 13.75 71.2035 13.8112 71.3311 13.9336C71.4613 14.056 71.5264 14.2031 71.5264 14.375C71.5264 14.5469 71.4613 14.694 71.3311 14.8164C71.2035 14.9388 71.0498 15 70.8701 15ZM75.4492 22.125C74.9076 22.125 74.4323 21.9961 74.0234 21.7383C73.6172 21.4805 73.2995 21.1198 73.0703 20.6562C72.8438 20.1927 72.7305 19.651 72.7305 19.0312C72.7305 18.4062 72.8438 17.8607 73.0703 17.3945C73.2995 16.9284 73.6172 16.5664 74.0234 16.3086C74.4323 16.0508 74.9076 15.9219 75.4492 15.9219C75.9909 15.9219 76.4648 16.0508 76.8711 16.3086C77.2799 16.5664 77.5977 16.9284 77.8242 17.3945C78.0534 17.8607 78.168 18.4062 78.168 19.0312C78.168 19.651 78.0534 20.1927 77.8242 20.6562C77.5977 21.1198 77.2799 21.4805 76.8711 21.7383C76.4648 21.9961 75.9909 22.125 75.4492 22.125ZM75.4492 21.2969C75.8607 21.2969 76.1992 21.1914 76.4648 20.9805C76.7305 20.7695 76.9271 20.4922 77.0547 20.1484C77.1823 19.8047 77.2461 19.4323 77.2461 19.0312C77.2461 18.6302 77.1823 18.2565 77.0547 17.9102C76.9271 17.5638 76.7305 17.2839 76.4648 17.0703C76.1992 16.8568 75.8607 16.75 75.4492 16.75C75.0378 16.75 74.6992 16.8568 74.4336 17.0703C74.168 17.2839 73.9714 17.5638 73.8438 17.9102C73.7161 18.2565 73.6523 18.6302 73.6523 19.0312C73.6523 19.4323 73.7161 19.8047 73.8438 20.1484C73.9714 20.4922 74.168 20.7695 74.4336 20.9805C74.6992 21.1914 75.0378 21.2969 75.4492 21.2969ZM80.4971 18.3906V22H79.5752V16H80.4658V16.9375H80.5439C80.6846 16.6328 80.8981 16.388 81.1846 16.2031C81.471 16.0156 81.8408 15.9219 82.2939 15.9219C82.7002 15.9219 83.0557 16.0052 83.3604 16.1719C83.665 16.3359 83.902 16.5859 84.0713 16.9219C84.2406 17.2552 84.3252 17.6771 84.3252 18.1875V22H83.4033V18.25C83.4033 17.7786 83.2809 17.4115 83.0361 17.1484C82.7913 16.8828 82.4554 16.75 82.0283 16.75C81.734 16.75 81.471 16.8138 81.2393 16.9414C81.0101 17.069 80.8291 17.2552 80.6963 17.5C80.5635 17.7448 80.4971 18.0417 80.4971 18.3906ZM91.9004 14V22H90.9316V15.0156H90.8848L88.9316 16.3125V15.3281L90.9316 14H91.9004Z" fill="black"/>
<defs>
<filter id="filter0_d_0_1" x="103" y="98" width="359" height="75" filterUnits="userSpaceOnUse" color-interpolation-filters="sRGB">
<feFlood flood-opacity="0" result="BackgroundImageFix"/>
<feColorMatrix in="SourceAlpha" type="matrix" values="0 0 0 0 0 0 0 0 0 0 0 0 0 0 0 0 0 0 127 0" result="hardAlpha"/>
<feOffset dy="4"/>
<feGaussianBlur stdDeviation="2"/>
<feComposite in2="hardAlpha" operator="out"/>
<feColorMatrix type="matrix" values="0 0 0 0 0 0 0 0 0 0 0 0 0 0 0 0 0 0 0.25 0"/>
<feBlend mode="normal" in2="BackgroundImageFix" result="effect1_dropShadow_0_1"/>
<feBlend mode="normal" in="SourceGraphic" in2="effect1_dropShadow_0_1" result="shape"/>
</filter>
<filter id="filter1_d_0_1" x="120" y="275" width="321" height="71" filterUnits="userSpaceOnUse" color-interpolation-filters="sRGB">
<feFlood flood-opacity="0" result="BackgroundImageFix"/>
<feColorMatrix in="SourceAlpha" type="matrix" values="0 0 0 0 0 0 0 0 0 0 0 0 0 0 0 0 0 0 127 0" result="hardAlpha"/>
<feOffset dy="4"/>
<feGaussianBlur stdDeviation="2"/>
<feComposite in2="hardAlpha" operator="out"/>
<feColorMatrix type="matrix" values="0 0 0 0 0 0 0 0 0 0 0 0 0 0 0 0 0 0 0.25 0"/>
<feBlend mode="normal" in2="BackgroundImageFix" result="effect1_dropShadow_0_1"/>
<feBlend mode="normal" in="SourceGraphic" in2="effect1_dropShadow_0_1" result="shape"/>
</filter>
<filter id="filter2_d_0_1" x="118" y="351" width="321" height="72" filterUnits="userSpaceOnUse" color-interpolation-filters="sRGB">
<feFlood flood-opacity="0" result="BackgroundImageFix"/>
<feColorMatrix in="SourceAlpha" type="matrix" values="0 0 0 0 0 0 0 0 0 0 0 0 0 0 0 0 0 0 127 0" result="hardAlpha"/>
<feOffset dy="4"/>
<feGaussianBlur stdDeviation="2"/>
<feComposite in2="hardAlpha" operator="out"/>
<feColorMatrix type="matrix" values="0 0 0 0 0 0 0 0 0 0 0 0 0 0 0 0 0 0 0.25 0"/>
<feBlend mode="normal" in2="BackgroundImageFix" result="effect1_dropShadow_0_1"/>
<feBlend mode="normal" in="SourceGraphic" in2="effect1_dropShadow_0_1" result="shape"/>
</filter>
<filter id="filter3_d_0_1" x="116" y="428" width="325" height="74" filterUnits="userSpaceOnUse" color-interpolation-filters="sRGB">
<feFlood flood-opacity="0" result="BackgroundImageFix"/>
<feColorMatrix in="SourceAlpha" type="matrix" values="0 0 0 0 0 0 0 0 0 0 0 0 0 0 0 0 0 0 127 0" result="hardAlpha"/>
<feOffset dy="4"/>
<feGaussianBlur stdDeviation="2"/>
<feComposite in2="hardAlpha" operator="out"/>
<feColorMatrix type="matrix" values="0 0 0 0 0 0 0 0 0 0 0 0 0 0 0 0 0 0 0.25 0"/>
<feBlend mode="normal" in2="BackgroundImageFix" result="effect1_dropShadow_0_1"/>
<feBlend mode="normal" in="SourceGraphic" in2="effect1_dropShadow_0_1" result="shape"/>
</filter>
</defs>
</svg>
